<svg width="50" height="51" viewBox="0 0 50 51" fill="none" xmlns="http://www.w3.org/2000/svg">
<path d="M25 0.645508C21.717 0.645508 18.4661 1.30839 15.4329 2.5963C12.3998 3.88421 9.6438 5.77193 7.32233 8.15168C2.63392 12.9578 0 19.4763 0 26.2732C0 37.6006 7.175 47.211 17.1 50.6195C18.35 50.8245 18.75 50.03 18.75 49.3381C18.75 48.7487 18.75 47.1341 18.75 45.007C11.825 46.5447 10.35 41.5729 10.35 41.5729C9.2 38.6001 7.575 37.8056 7.575 37.8056C5.3 36.2167 7.75 36.268 7.75 36.268C10.25 36.4474 11.575 38.9076 11.575 38.9076C13.75 42.803 17.425 41.6498 18.85 41.0347C19.075 39.3689 19.725 38.2413 20.425 37.6006C14.875 36.9599 9.05 34.756 9.05 24.9918C9.05 22.1471 10 19.8663 11.625 18.0467C11.375 17.406 10.5 14.7407 11.875 11.281C11.875 11.281 13.975 10.589 18.75 13.895C20.725 13.3312 22.875 13.0493 25 13.0493C27.125 13.0493 29.275 13.3312 31.25 13.895C36.025 10.589 38.125 11.281 38.125 11.281C39.5 14.7407 38.625 17.406 38.375 18.0467C40 19.8663 40.95 22.1471 40.95 24.9918C40.95 34.7816 35.1 36.9343 29.525 37.575C30.425 38.3695 31.25 39.9327 31.25 42.3161C31.25 45.7502 31.25 48.518 31.25 49.3381C31.25 50.03 31.65 50.8501 32.925 50.6195C42.85 47.1854 50 37.6006 50 26.2732C50 22.9077 49.3534 19.5752 48.097 16.4659C46.8406 13.3566 44.9991 10.5314 42.6777 8.15168C40.3562 5.77193 37.6002 3.88421 34.5671 2.5963C31.5339 1.30839 28.283 0.645508 25 0.645508Z" fill="black"/>
</svg>
