<svg width="45" height="30" viewBox="0 0 45 30" fill="none" xmlns="http://www.w3.org/2000/svg">
<path d="M18 21.4286L29.6775 15L18 8.57143V21.4286ZM44.01 4.65C44.3025 5.65714 44.505 7.00714 44.64 8.72143C44.7975 10.4357 44.865 11.9143 44.865 13.2L45 15C45 19.6929 44.64 23.1429 44.01 25.35C43.4475 27.2786 42.1425 28.5214 40.1175 29.0571C39.06 29.3357 37.125 29.5286 34.155 29.6571C31.23 29.8071 28.5525 29.8714 26.0775 29.8714L22.5 30C13.0725 30 7.2 29.6571 4.8825 29.0571C2.8575 28.5214 1.5525 27.2786 0.99 25.35C0.6975 24.3429 0.495 22.9929 0.36 21.2786C0.2025 19.5643 0.135 18.0857 0.135 16.8L0 15C0 10.3071 0.36 6.85714 0.99 4.65C1.5525 2.72143 2.8575 1.47857 4.8825 0.942857C5.94 0.664286 7.875 0.471428 10.845 0.342857C13.77 0.192857 16.4475 0.128571 18.9225 0.128571L22.5 0C31.9275 0 37.8 0.342857 40.1175 0.942857C42.1425 1.47857 43.4475 2.72143 44.01 4.65Z" fill="white"/>
</svg>
